<?xml version="1.0" encoding="UTF-8" standalone="no"?>
<svg
   width="150"
   height="200"
   viewBox="0 0 150 200"
   version="1.1"
   xmlns="http://www.w3.org/2000/svg"
   xmlns:svg="http://www.w3.org/2000/svg">
    <path
       d="M 127.22157,149.37054 144.7093,106.26381 142.92713,68.615061 148.94201,40.879699 134.68447,23.39197 121.76362,28.627156 121.0953,13.924092 105.05558,2.6740201 90.686679,18.71374 82.778208,1.0032169 64.81229,1.0088182 57.493396,22.166732 43.826414,1.7894898 24.387752,9.8251712 19.733287,56.696661 0.46332967,86.214191 27.418961,141.90762 l 17.48773,16.26247 2.450515,22.61153 -1.448043,17.26499 82.537647,0.1115 -2.5619,-25.61901 z"
       id="skin"
  />
    <path
       id="bones"
       style="fill:#ffffff"
       d="m 96.927247,196.71025 0.236319,-13.94097 -2.519434,-12.31394 10.391718,0.0693 11.97583,-9.09984 -4.56823,22.91987 -0.94512,12.91702 z m -39.712341,0.44525 0.222719,-20.77364 -1.726482,-16.42957 12.770559,7.9276 11.476814,2.08635 -4.7547,12.70902 -1.615123,14.70306 z m 41.58963,-50.41742 11.180964,-7.29739 8.57438,-0.95623 0.18454,7.85733 -19.773987,14.2463 z m -19.665809,-3.09368 11.312061,0.10972 0.932081,17.05017 -10.527453,-1.42481 z m 20.640647,-28.38131 -0.837046,19.19909 8.894462,-5.87717 10.11562,0.42199 -1.16395,-10.9243 z m -33.739014,16.03354 -7.872942,-0.1093 -4.040057,13.59829 15.874955,12.25726 z m 9.024299,-4.73255 2.004976,7.68569 13.867664,-0.55693 0.111495,-19.52056 -15.399223,0.0555 z m -41.009495,1.58347 15.598626,-12.74747 16.942005,-1.53554 0.228614,6.87444 -14.158617,2.5778 -6.934003,16.36957 z M 15.053723,90.932311 23.008739,102.07721 30.341078,117.94927 40.679124,110.1017 29.388377,99.044936 23.993153,81.047727 16.747022,80.496372 Z m 25.833049,-40.979989 0.118429,10.257154 -6.400015,5.66367 -4.783428,16.789222 -3.175856,-6.87868 -6.299379,-0.968223 10.176171,-11.967428 z m 5.081205,10.183889 7.285527,-0.11816 6.301008,-2.59918 8.50981,-0.665631 3.942566,-7.39689 -15.602891,0.619399 -2.835407,-1.496477 -7.797508,0.512066 z m -0.869773,5.386143 8.002305,0.04488 2.200832,13.157034 5.300318,21.514902 -11.57873,3.81764 0.253116,-22.260812 z M 37.264735,31.663593 42.620589,44.068667 49.03973,43.911134 48.882081,29.103803 42.029745,28.119279 Z m -1.642114,-4.234875 5.07899,-3.845024 6.526578,0.991297 -6.523723,-13.16091 -7.179397,4.690193 z M 72.521913,62.154497 73.531798,84.48559 69.907789,99.258447 83.525634,97.369285 79.880871,82.369261 80.07824,48.990926 Z m 2.449047,-41.221923 6.164413,4.193718 -2.815742,8.68356 -0.233931,9.336643 -2.166955,2.478227 -2.821499,-2.783554 -0.389472,-7.377309 -3.5246,-6.222214 0.05895,-5.218035 z M 68.459292,20.772991 75.02388,17.322431 81.996347,21.90688 77.78673,5.455312 69.724493,5.7227988 Z m 45.902288,5.051334 0.5828,-9.970602 -9.21683,-6.2085134 -4.93813,11.1236454 7.68527,-0.190337 z m -14.383654,1.012595 7.065474,-0.03055 -0.51406,4.951757 -9.939451,16.333997 z m -7.973338,70.278246 9.609022,1.181442 1.85091,-23.668102 10.4557,-37.39246 -3.9184,1.476786 -10.711705,16.540117 -2.205362,18.587933 z m 31.144092,-55.404031 7.136,-9.074063 5.31011,5.159035 -3.99114,12.359278 -2.56377,-5.83728 z m -9.85047,27.126699 5.96656,-20.362376 5.20253,0.535513 0.17445,4.480159 z m 7.57432,35.421036 5.34654,-19.38132 8.6104,-26.082699 -4.43191,-1.721158 -6.20928,7.692586 -4.20687,16.992359 -9.69064,19.492712 z" />
</svg>
