<?xml version="1.0" encoding="UTF-8" standalone="no"?>
<svg
   viewBox="0 0 194.22 184.73"
   version="1.1"
   id="svg1"
   sodipodi:docname="star.svg"
   inkscape:version="1.3 (0e150ed6c4, 2023-07-21)"
   xmlns:inkscape="http://www.inkscape.org/namespaces/inkscape"
   xmlns:sodipodi="http://sodipodi.sourceforge.net/DTD/sodipodi-0.dtd"
   xmlns="http://www.w3.org/2000/svg"
   xmlns:svg="http://www.w3.org/2000/svg">
  <defs
     id="defs1" />
  <sodipodi:namedview
     id="namedview1"
     pagecolor="#ffffff"
     bordercolor="#000000"
     borderopacity="0.25"
     inkscape:showpageshadow="2"
     inkscape:pageopacity="0.0"
     inkscape:pagecheckerboard="0"
     inkscape:deskcolor="#d1d1d1"
     inkscape:zoom="9.6248581"
     inkscape:cx="97.09234"
     inkscape:cy="117.30043"
     inkscape:window-width="3840"
     inkscape:window-height="2036"
     inkscape:window-x="-12"
     inkscape:window-y="-12"
     inkscape:window-maximized="1"
     inkscape:current-layer="svg1" />
  <g
     id="layer1"
     transform="translate(-262.89 -462.86)">
    <path
       id="path2985"
       style="fill:#b38f00;stroke-width:2.21184;fill-opacity:1"
       d="m 419.98624,647.57807 -60.01047,-31.56494 -60.02437,31.54175 11.47555,-66.82749 -48.54626,-47.33987 67.10291,-9.73709 30.02141,-60.79859 29.9971,60.81131 67.0987,9.76367 -48.56378,47.31912 z" />
    <path
       id="path3836"
       d="m 390.205,523.276 c -30.39,41.369 -30.72,41.819 -30.72,41.819 l 97.411,-31.899 z"
       style="fill:#ffe680" />
    <path
       id="path3838"
       d="m 359.985,564.206 v 51.942 l -60.63,31.117 z"
       style="fill:#ffdd55" />
    <path
       id="path3840"
       d="m 359.985,564.206 59.613,81.476 -11.189,-65.984 z"
       style="fill:#ffdd55" />
    <path
       id="path3842"
       d="m 263.275,533.266 96.715,30.942 -29.882,-40.842 z"
       style="fill:#ffe680" />
    <path
       id="path3844"
       d="m 359.985,564.206 v -101.22 l 29.83,60.357 z"
       style="fill:#ffdd55" />
    <path
       id="path3846"
       d="m 299.975,646.426 11.261,-66.541 48.757,-15.679 z"
       style="fill:#dcb000;fill-opacity:1" />
  </g>
</svg>
