<?xml version="1.0" encoding="UTF-8" standalone="no"?>
<svg
   width="150"
   height="200"
   viewBox="0 0 150 200"
   version="1.1"
   xmlns="http://www.w3.org/2000/svg"
   xmlns:svg="http://www.w3.org/2000/svg">
    <path
       d="m 118.33717,185.27351 14.06133,-34.66082 -1.43299,-30.27216 1.5432,-25.974279 13.56759,-44.155581 -3.13339,-9.072762 -8.50167,3.042448 -14.91649,32.198081 -5.57614,11.809091 -0.53737,-11.822268 12.21789,-56.761453 -2.64531,-9.7079877 -7.81675,1.6428227 -17.946033,57.554043 -8.2604,11.123781 L 84.62826,65.849335 82.918098,3.8529222 72.538639,0.56264443 65.277064,7.2727719 66.002633,65.600518 62.270975,82.992906 52.801706,66.608213 32.901399,9.0304705 23.75142,8.5595416 19.832859,14.873193 34.234141,79.311829 34.775264,110.30951 23.802767,100.62468 19.771881,81.582245 9.4905806,76.420989 0.92961153,81.509095 9.0530858,114.27074 l 7.3618392,20.22069 21.674146,44.78135 14.061325,13.07622 1.020423,5.95847 64.218251,0.0221 z"
       id="skin"
       style="fill:#3ca1ed"
       />
    <path
       id="bones"
       style="fill:#ffffff"
       d="m 122.88286,90.44878 -4.71306,8.962974 6.86153,2.827946 0.9119,-9.16532 3.39349,-8.255945 -5.1622,-2.169193 z m -20.65376,-17.286939 -5.659454,20.978901 7.938694,2.25215 2.76199,-20.703082 3.29173,-17.009584 -4.30048,-1.766159 z m -29.062812,-18.270058 4.85354,0.437068 -0.767387,-25.673572 -4.205367,-0.259092 z m -37.168499,-2.149503 5.30135,1.064008 -8.290641,-24.240569 -4.205369,-0.259093 z m 12.029583,47.8592 6.098413,-0.10348 -7.771526,-23.384038 -4.542846,-18.986243 -5.155321,-1.272371 6.508075,20.857592 z m 47.460569,82.55536 8.990259,-5.86765 6.8944,-0.76886 0.14838,6.31785 -15.899643,11.45508 z m -15.81266,-2.48755 9.095673,0.0881 0.749468,13.70958 -8.464803,-1.14565 z m 16.596495,-22.82056 -0.673042,15.43738 7.151756,-4.72565 8.13365,0.3393 -0.93589,-8.78388 z m -27.128473,12.89205 -6.330382,-0.0879 -3.248481,10.93403 12.764545,9.85572 z m 7.256171,-3.80528 1.612131,6.17983 11.150543,-0.44781 0.08958,-15.69588 -12.382026,0.0446 z m -32.974448,1.27321 12.542372,-10.24983 13.622512,-1.23469 0.183799,5.52752 -11.384492,2.07273 -5.575403,13.1623 z m -15.278437,-29.92359 6.396372,8.96126 5.895701,12.76222 8.312478,-6.31 -9.078524,-8.89037 -4.338123,-14.47099 -5.826384,-0.44333 z m -14.426578,-30.53251 6.095854,-2.23138 6.228394,13.06243 6.184814,7.76767 -5.509178,2.52971 -4.706864,3.61005 -2.833866,-14.54857 z m 4.443884,-6.85799 -2.922007,-12.392883 -7.2191828,-2.454664 4.3404258,18.693787 z m 30.91064,5.43304 6.814381,0.22607 4.619481,21.91529 4.261839,17.29945 -9.310111,3.06964 0.203488,-17.89921 z m -23.041252,-91.24471 1.933061,11.317959 4.489712,0.09723 -3.753951,-12.980844 -2.061587,0.10401 z m 9.964506,37.65933 5.30135,1.064008 -8.290641,-24.240569 -4.205369,-0.259093 z m 37.407189,51.95401 1.761966,28.40523 -2.913965,11.87839 10.94969,-1.51901 -2.930642,-12.06105 0.158777,-26.83846 z m 0.85921,-97.6596529 1.6001,1.978767 1.31522,17.4320819 -4.90922,0.06292 -0.712567,-17.3050298 z m -0.516014,70.7824609 -1.181318,20.531089 7.759568,0.01295 -2.432646,-21.956958 0.694423,-16.92002 -5.912619,0.02514 z m 46.787466,-57.355527 -0.42701,-3.986722 -3.29108,0.739942 -2.62715,9.481542 4.29865,1.638208 z m -7.08731,10.666081 4.15857,1.408448 -4.80192,20.819326 -5.21555,-1.733756 z m -23.428004,112.126898 7.726308,0.94997 1.488259,-19.03077 4.555907,-23.25933 -5.568869,-1.49943 -3.37351,1.74579 -0.743298,22.37967 z M 125.785,79.126127 l 5.74419,-14.852347 3.5174,0.459694 -3.51866,16.159443 z m 7.45664,-18.206704 2.19328,-7.500125 3.10658,-3.052579 1.09013,3.349033 -3.12115,7.649174 z m -20.00953,88.081157 4.29899,-15.5839 6.92334,-20.97227 -3.81689,-2.52388 -4.42271,0.80229 -3.69924,20.18604 -7.79195,15.67347 z" />
</svg>
