<?xml version="1.0" encoding="UTF-8" standalone="no"?>
<!-- Created with Inkscape (http://www.inkscape.org/) -->

<svg
   width="150"
   height="200"
   viewBox="0 0 150 200"
   version="1.1"
   xmlns="http://www.w3.org/2000/svg"
   xmlns:svg="http://www.w3.org/2000/svg">
    <path
       d="m 118.49076,185.61224 14.07499,-34.69453 -1.43437,-30.30159 4.84107,-22.322804 -11.47518,-14.074993 -10.39935,4.21354 L 113.56003,76.5981 100.65046,67.543482 89.08565,80.453047 84.749057,66.071951 83.037237,4.0152395 72.647687,0.72176261 65.379053,7.4384169 66.105325,65.822893 62.370044,83.232188 52.891562,66.831564 32.971896,9.1978276 23.81302,8.7264403 l -3.922376,6.3197927 15.58074,60.915312 -3.492589,35.062055 -15.509409,23.75718 21.695233,44.8249 14.075,13.08893 0.672377,6.00654 64.861554,0.0449 z"
       id="skin"
       />
    <path
       id="bones"
       style="fill:#ffffff"
       d="M 73.275949,55.103743 78.134201,55.541236 77.366069,29.8427 73.156617,29.583374 Z M 36.0713,52.95215 41.377807,54.017193 33.079099,29.753052 28.869643,29.493727 Z m 12.04129,47.90573 6.10434,-0.10359 -7.779081,-23.406783 -4.547268,-19.004698 -5.160336,-1.273605 6.514401,20.877868 z m 47.506707,82.63563 8.999003,-5.87335 6.9011,-0.76961 0.14854,6.324 -15.915103,11.46621 z m -15.828028,-2.48996 9.104515,0.0882 0.750194,13.72291 -8.47303,-1.14676 z m 16.612631,-22.84276 -0.673698,15.45239 7.158708,-4.73025 8.14156,0.33963 -0.9368,-8.79241 z m -27.15485,12.9046 -6.33654,-0.088 -3.251637,10.94465 12.776954,9.8653 z m 7.263222,-3.809 1.613698,6.18585 11.161389,-0.44824 0.08965,-15.71115 -12.394067,0.0447 z m -33.00651,1.27445 12.554573,-10.25979 13.635756,-1.23589 0.18399,5.53289 -11.39556,2.07475 -5.580825,13.1751 z m -15.293299,-29.95268 6.402594,8.96997 5.901435,12.77463 8.320568,-6.31612 -9.087356,-8.89903 -4.342341,-14.48506 -5.832055,-0.44376 z m 20.791736,-32.98274 0.09526,8.25547 -5.151061,4.5584 -3.849946,13.51281 -2.556102,-5.53631 -5.070044,-0.77927 8.190295,-9.63198 z m 4.089609,8.1965 5.863755,-0.0951 5.07135,-2.09195 6.849142,-0.53574 3.173159,-5.95338 -12.557976,0.49852 -2.282092,-1.20444 -6.275811,0.41214 z m -0.700048,4.33504 6.440653,0.0361 1.771338,10.58944 4.265978,17.31626 -9.31916,3.07263 0.203695,-17.91661 z M 26.0971,15.256192 l 1.934942,11.32897 4.494079,0.09734 -3.757603,-12.993475 -2.06359,0.104106 z m 9.9742,37.695958 5.306507,1.065043 -8.298708,-24.264141 -4.209456,-0.259325 z m 38.394444,62.46419 0.812801,17.97318 -2.916795,11.88993 10.960334,-1.52049 -2.933489,-12.07277 0.158907,-26.86455 z M 74.374902,7.202053 75.976558,9.1827465 77.293057,26.631786 72.379062,26.694761 71.665804,9.3728956 Z m -0.516516,70.851299 -1.182467,20.551045 7.767112,0.01306 -2.435011,-21.978303 0.695098,-16.936472 -5.918368,0.02497 z m 34.281984,8.12265 0.46908,-8.02484 -7.41817,-4.996921 -3.97445,8.952867 6.18548,-0.153223 z m -11.57667,0.814986 5.68665,-0.02458 -0.41376,3.985423 -7.999755,13.146409 z m -6.417343,56.563442 7.733823,0.95089 1.48971,-19.04928 8.41527,-30.095318 -3.15374,1.188594 -8.6213,13.312314 -1.774995,14.9605 z m 25.066323,-44.591933 5.74341,-7.303257 4.27384,4.15225 -3.21228,9.94736 -2.06345,-4.69814 z m -7.92815,21.832923 4.80218,-16.38866 4.18726,0.43101 0.14031,3.60586 z m 6.09618,28.50862 4.30317,-15.59906 6.93008,-20.99265 -3.56703,-1.38528 -4.99754,6.19138 -3.38589,13.6763 -7.79952,15.68871 z" />
</svg>
